<?xml version="1.0" encoding="utf-8"?>
<!-- Generator: Adobe Illustrator 18.0.0, SVG Export Plug-In . SVG Version: 6.00 Build 0)  -->
<!DOCTYPE svg PUBLIC "-//W3C//DTD SVG 1.1//EN" "http://www.w3.org/Graphics/SVG/1.1/DTD/svg11.dtd">
<svg version="1.1" id="Layer_1" xmlns="http://www.w3.org/2000/svg" xmlns:xlink="http://www.w3.org/1999/xlink" x="0px" y="0px"
	 viewBox="0 0 600.1 34.4" enable-background="new 0 0 600.1 34.4" xml:space="preserve">
<g>
	<path d="M0,33.6V0.8h14.8v4.4h-10v9.3h8.9v4.4H4.8v14.7H0z"/>
	<path d="M35.5,33.6l6.7-32.8H49l6.7,32.8h-4.7l-1.4-7.5h-7.8l-1.4,7.5H35.5z M45.6,6.3l-3,15.4h6L45.6,6.3z"/>
	<path d="M88.2,34c-6.3,0-8.5-4.3-8.5-8.3v-2.9h4.8v2.9c0.2,1.9,1,3.9,3.7,3.9c2,0,3.4-1.3,3.4-3.9c0-6.4-11.5-7.6-11.5-17.3
		c0-4.9,3.1-8.1,8.2-8.1c5.8,0,7.8,4.1,7.8,8.1v2.6h-4.7V8.5c0-1.5-0.9-3.7-3.1-3.7c-2.1,0-3.4,1.4-3.4,3.7
		c0,6.3,11.5,7.9,11.5,17.3C96.5,30.8,93.4,34,88.2,34z"/>
	<path d="M122.5,33.6V0.8h4.9v13.7h7.2V0.8h5v32.8h-5V18.9h-7.2v14.7H122.5z"/>
	<path d="M166.9,33.6V0.8h4.9v32.8H166.9z"/>
	<path d="M207.2,34c-8.4,0-8.4-6.6-8.4-9.5V9.8c0-2,0-9.4,8.4-9.4c8.4,0,8.4,7.3,8.4,9.4v14.7C215.6,27.4,215.6,34,207.2,34z
		 M203.7,24.5c0,1.7,0,5,3.6,5s3.6-3.4,3.6-5V9.8c0-1.6,0-5-3.6-5c-3.6,0-3.6,3.6-3.6,5V24.5z"/>
	<path d="M242.5,33.6V0.8h6.4l7.7,23.4V0.8h4.6v32.8h-6.3l-7.8-24.1v24.1H242.5z"/>
	<path fill="none" stroke="#000000" stroke-width="0.75" stroke-miterlimit="10" d="M288.5,33.6V0.8h6.6c5.8,0,10.5,0.7,10.5,9
		c0,4.9-2,6.4-4.6,6.9c3.2,0.2,5.1,2.2,5.1,7.2c0,7.8-4,9.6-11.1,9.6H288.5z M293.3,5.2v9.3h1.8c3.3,0,5.7-0.4,5.7-4.7
		c0-4.2-2.2-4.6-5.7-4.6H293.3z M293.3,18.9v10.3h1.8c4.1,0,6.2-0.6,6.2-5.2c0-4.7-2.7-5.1-6.2-5.1H293.3z"/>
	<path fill="none" stroke="#000000" stroke-width="0.75" stroke-miterlimit="10" d="M332.5,33.6V0.8h4.8v28.4h10v4.4H332.5z"/>
	<path fill="none" stroke="#000000" stroke-width="0.75" stroke-miterlimit="10" d="M378,34c-8.4,0-8.4-6.6-8.4-9.5V9.8
		c0-2,0-9.4,8.4-9.4c8.4,0,8.4,7.3,8.4,9.4v14.7C386.5,27.4,386.5,34,378,34z M374.5,24.5c0,1.7,0,5,3.6,5s3.6-3.4,3.6-5V9.8
		c0-1.6,0-5-3.6-5c-3.6,0-3.6,3.6-3.6,5V24.5z"/>
	<path fill="none" stroke="#000000" stroke-width="0.75" stroke-miterlimit="10" d="M419.6,34c-3.7,0-6.6-2.3-6.6-9.4V9.2
		c0-5.1,2.9-8.8,8.4-8.8c5.6,0,8.3,3.5,8.3,8.8v1.6h-4.9V9.2c0-2.5-0.8-4.4-3.4-4.4c-3.1,0-3.7,2.7-3.7,4.4v15.5
		c0,2.2,0.3,4.9,3.4,4.9c2.1,0,2.6-0.9,3.6-1.8v-7.6h-4.1v-4.4h9v17.8h-4.4v-2.7C424.3,32.1,423,34,419.6,34z"/>
	<path fill="none" stroke="#000000" stroke-width="0.75" stroke-miterlimit="10" d="M463,34c-3.7,0-6.6-2.3-6.6-9.4V9.2
		c0-5.1,2.9-8.8,8.4-8.8c5.6,0,8.3,3.5,8.3,8.8v1.6h-4.9V9.2c0-2.5-0.8-4.4-3.4-4.4c-3.1,0-3.7,2.7-3.7,4.4v15.5
		c0,2.2,0.3,4.9,3.4,4.9c2.1,0,2.6-0.9,3.6-1.8v-7.6h-4.1v-4.4h9v17.8h-4.4v-2.7C467.7,32.1,466.3,34,463,34z"/>
	<path fill="none" stroke="#000000" stroke-width="0.75" stroke-miterlimit="10" d="M500,33.6V0.8h14.8v4.4h-10v9.3h8.8v4.4h-8.8
		v10.3h10.3v4.4H500z"/>
	<path fill="none" stroke="#000000" stroke-width="0.75" stroke-miterlimit="10" d="M540.9,33.6V0.8h6.8c5.1,0,10.4,0,10.4,9.1
		c0,5.6-1.6,7.2-4.2,8.4l5.7,15.2h-5.2l-5-14.2c-1.3,0.1-3.1,0.1-3.7,0.1v14.1H540.9z M545.8,5.2v10.1c0.8,0,1.5,0,2.2,0
		c4.1,0,5.2-1.3,5.2-5.4c0-3.1-1.1-4.7-5.2-4.7C547.3,5.2,546.6,5.2,545.8,5.2z"/>
	<path fill="none" stroke="#000000" stroke-width="0.75" stroke-miterlimit="10" d="M591.5,34c-6.3,0-8.5-4.3-8.5-8.3v-2.9h4.8v2.9
		c0.2,1.9,1,3.9,3.7,3.9c2,0,3.4-1.3,3.4-3.9c0-6.4-11.5-7.6-11.5-17.3c0-4.9,3.1-8.1,8.2-8.1c5.8,0,7.8,4.1,7.8,8.1v2.6h-4.7V8.5
		c0-1.5-0.9-3.7-3.1-3.7c-2.1,0-3.4,1.4-3.4,3.7c0,6.3,11.5,7.9,11.5,17.3C599.7,30.8,596.6,34,591.5,34z"/>
</g>
</svg>
