<?xml version="1.0" encoding="utf-8"?>
<!-- Generator: Adobe Illustrator 18.0.0, SVG Export Plug-In . SVG Version: 6.00 Build 0)  -->
<!DOCTYPE svg PUBLIC "-//W3C//DTD SVG 1.1//EN" "http://www.w3.org/Graphics/SVG/1.1/DTD/svg11.dtd">
<svg version="1.1" id="Layer_1" xmlns="http://www.w3.org/2000/svg" xmlns:xlink="http://www.w3.org/1999/xlink" x="0px" y="0px"
	 viewBox="0 0 565.7 34.4" enable-background="new 0 0 565.7 34.4" xml:space="preserve">
<g>
	<path d="M0,33.5V0.8h4.9v32.8H0z"/>
	<path d="M32.3,33.5V0.8h6.4l7.7,23.4V0.8h4.6v32.8h-6.3L36.9,9.5v24.1H32.3z"/>
	<path d="M85.5,34c-6.3,0-8.5-4.3-8.5-8.3v-2.9h4.8v2.9c0.2,1.9,1,3.9,3.7,3.9c2,0,3.4-1.3,3.4-3.9c0-6.4-11.5-7.6-11.5-17.3
		c0-4.9,3.1-8.1,8.2-8.1c5.8,0,7.8,4.1,7.8,8.1V11h-4.7V8.4c0-1.5-0.9-3.7-3.1-3.7c-2.1,0-3.4,1.4-3.4,3.7c0,6.3,11.5,7.9,11.5,17.3
		C93.7,30.7,90.6,34,85.5,34z"/>
	<path d="M124.2,33.5V5.1h-6V0.8h17v4.4h-6v28.4H124.2z"/>
	<path d="M154.4,33.5l6.7-32.8h6.7l6.7,32.8h-4.7l-1.4-7.5h-7.8l-1.4,7.5H154.4z M164.5,6.2l-3,15.4h6L164.5,6.2z"/>
	<path d="M205.2,34c-3.7,0-6.6-2.3-6.6-9.4V9.2c0-5.1,2.9-8.8,8.4-8.8c5.6,0,8.3,3.5,8.3,8.8v1.6h-4.9V9.2c0-2.5-0.8-4.4-3.4-4.4
		c-3.1,0-3.7,2.7-3.7,4.4v15.5c0,2.2,0.3,4.9,3.4,4.9c2.1,0,2.6-0.9,3.6-1.8v-7.6h-4.1v-4.4h9v17.8H211v-2.7
		C209.9,32.1,208.5,34,205.2,34z"/>
	<path d="M242.4,33.5V0.8h6.8c5.1,0,10.4,0,10.4,9.1c0,5.6-1.6,7.2-4.2,8.4l5.7,15.2h-5.2l-5-14.2c-1.3,0.1-3.1,0.1-3.7,0.1v14.1
		H242.4z M247.2,5.2v10.1c0.8,0,1.5,0,2.2,0c4.1,0,5.2-1.3,5.2-5.4c0-3.1-1.1-4.7-5.2-4.7C248.7,5.2,248,5.2,247.2,5.2z"/>
	<path d="M284.4,33.5l6.7-32.8h6.7l6.7,32.8h-4.7l-1.4-7.5h-7.8l-1.4,7.5H284.4z M294.5,6.2l-3,15.4h6L294.5,6.2z"/>
	<path d="M329.7,33.5V0.8h7.3l5.4,22l5.4-22h7.3v32.8h-4.5V7l-6,26.5h-4.3l-6-26.5v26.5H329.7z"/>
	<path fill="none" stroke="#000000" stroke-width="0.75" stroke-miterlimit="10" d="M382.3,33.5V0.8h6.9c4,0,10.2,0,10.2,8.6
		c0,6.8-1.6,10.2-10.2,10.2H387v13.9H382.3z M387,5.2v9.9h2.2c3.4,0,5.4-0.2,5.4-5.7c0-3.7-1.9-4.2-5.4-4.2H387z"/>
	<path fill="none" stroke="#000000" stroke-width="0.75" stroke-miterlimit="10" d="M433.6,34c-8.4,0-8.4-6.6-8.4-9.5V9.7
		c0-2,0-9.4,8.4-9.4c8.4,0,8.4,7.3,8.4,9.4v14.7C442,27.4,442,34,433.6,34z M430.1,24.4c0,1.7,0,5,3.6,5s3.6-3.4,3.6-5V9.7
		c0-1.6,0-5-3.6-5c-3.6,0-3.6,3.6-3.6,5V24.4z"/>
	<path fill="none" stroke="#000000" stroke-width="0.75" stroke-miterlimit="10" d="M476.3,34c-6.3,0-8.5-4.3-8.5-8.3v-2.9h4.8v2.9
		c0.2,1.9,1,3.9,3.7,3.9c2,0,3.4-1.3,3.4-3.9c0-6.4-11.5-7.6-11.5-17.3c0-4.9,3.1-8.1,8.2-8.1c5.8,0,7.8,4.1,7.8,8.1V11h-4.7V8.4
		c0-1.5-0.9-3.7-3.1-3.7c-2.1,0-3.4,1.4-3.4,3.7c0,6.3,11.5,7.9,11.5,17.3C484.5,30.7,481.4,34,476.3,34z"/>
	<path fill="none" stroke="#000000" stroke-width="0.75" stroke-miterlimit="10" d="M514.9,33.5V5.1h-6V0.8h17v4.4h-6v28.4H514.9z"
		/>
	<path fill="none" stroke="#000000" stroke-width="0.75" stroke-miterlimit="10" d="M557.1,34c-6.3,0-8.5-4.3-8.5-8.3v-2.9h4.8v2.9
		c0.2,1.9,1,3.9,3.7,3.9c2,0,3.4-1.3,3.4-3.9c0-6.4-11.5-7.6-11.5-17.3c0-4.9,3.1-8.1,8.2-8.1c5.8,0,7.8,4.1,7.8,8.1V11h-4.7V8.4
		c0-1.5-0.9-3.7-3.1-3.7c-2.1,0-3.4,1.4-3.4,3.7c0,6.3,11.5,7.9,11.5,17.3C565.3,30.7,562.2,34,557.1,34z"/>
</g>
</svg>
