<?xml version="1.0" encoding="utf-8"?>
<!-- Generator: Adobe Illustrator 18.0.0, SVG Export Plug-In . SVG Version: 6.00 Build 0)  -->
<!DOCTYPE svg PUBLIC "-//W3C//DTD SVG 1.1//EN" "http://www.w3.org/Graphics/SVG/1.1/DTD/svg11.dtd">
<svg version="1.1" id="Layer_1" xmlns="http://www.w3.org/2000/svg" xmlns:xlink="http://www.w3.org/1999/xlink" x="0px" y="0px"
	 viewBox="0 0 386.2 34.4" enable-background="new 0 0 386.2 34.4" xml:space="preserve">
<g>
	<path d="M8.5,34C2.2,34,0,29.8,0,25.8v-2.9h4.8v2.9c0.2,1.9,1,3.9,3.7,3.9c2,0,3.4-1.3,3.4-3.9c0-6.4-11.5-7.6-11.5-17.3
		c0-4.9,3.1-8.1,8.2-8.1c5.8,0,7.8,4.1,7.8,8.1v2.6h-4.7V8.5c0-1.5-0.9-3.7-3.1-3.7c-2.1,0-3.4,1.4-3.4,3.7
		c0,6.3,11.5,7.9,11.5,17.3C16.7,30.8,13.6,34,8.5,34z"/>
	<path d="M39.9,33.6l6.7-32.8h6.7L60,33.6h-4.7l-1.4-7.5h-7.8l-1.4,7.5H39.9z M50,6.3l-3,15.4h6L50,6.3z"/>
	<path d="M85.5,33.6V0.8h4.9v32.8H85.5z"/>
	<path d="M117.8,33.6V0.8h6.4l7.7,23.4V0.8h4.6v32.8h-6.3l-7.8-24.1v24.1H117.8z"/>
	<path d="M167.9,33.6V5.2h-6V0.8h17v4.4h-6v28.4H167.9z"/>
	<path d="M210.1,34c-6.3,0-8.5-4.3-8.5-8.3v-2.9h4.8v2.9c0.2,1.9,1,3.9,3.7,3.9c2,0,3.4-1.3,3.4-3.9c0-6.4-11.5-7.6-11.5-17.3
		c0-4.9,3.1-8.1,8.2-8.1c5.8,0,7.8,4.1,7.8,8.1v2.6h-4.7V8.5c0-1.5-0.9-3.7-3.1-3.7c-2.1,0-3.4,1.4-3.4,3.7
		c0,6.3,11.5,7.9,11.5,17.3C218.3,30.8,215.2,34,210.1,34z"/>
	<path fill="none" stroke="#000000" stroke-width="0.75" stroke-miterlimit="10" d="M244.6,33.6V0.8h6.6c5.8,0,10.5,0.7,10.5,9
		c0,4.9-2,6.4-4.6,6.9c3.2,0.2,5.1,2.2,5.1,7.2c0,7.8-4,9.6-11.1,9.6H244.6z M249.3,5.2v9.3h1.8c3.3,0,5.7-0.4,5.7-4.7
		c0-4.2-2.2-4.6-5.7-4.6H249.3z M249.3,18.9v10.4h1.8c4.1,0,6.2-0.6,6.2-5.2c0-4.7-2.7-5.1-6.2-5.1H249.3z"/>
	<path fill="none" stroke="#000000" stroke-width="0.75" stroke-miterlimit="10" d="M288.5,33.6V0.8h4.8v28.4h10v4.4H288.5z"/>
	<path fill="none" stroke="#000000" stroke-width="0.75" stroke-miterlimit="10" d="M334.1,34c-8.4,0-8.4-6.6-8.4-9.5V9.8
		c0-2,0-9.4,8.4-9.4c8.4,0,8.4,7.3,8.4,9.4v14.7C342.5,27.4,342.5,34,334.1,34z M330.5,24.5c0,1.7,0,5,3.6,5s3.6-3.4,3.6-5V9.8
		c0-1.6,0-5-3.6-5c-3.6,0-3.6,3.6-3.6,5V24.5z"/>
	<path fill="none" stroke="#000000" stroke-width="0.75" stroke-miterlimit="10" d="M375.7,34c-3.7,0-6.6-2.3-6.6-9.4V9.2
		c0-5.1,2.9-8.8,8.4-8.8c5.6,0,8.3,3.5,8.3,8.8v1.6H381V9.2c0-2.5-0.8-4.4-3.4-4.4c-3.1,0-3.7,2.7-3.7,4.4v15.5
		c0,2.2,0.3,4.9,3.4,4.9c2.1,0,2.6-0.9,3.6-1.8v-7.6h-4.1v-4.4h9v17.8h-4.4v-2.7C380.4,32.1,379,34,375.7,34z"/>
</g>
</svg>
